<?xml version="1.0" encoding="UTF-8"?>
<svg xmlns="http://www.w3.org/2000/svg" viewBox="0 0 1400 1100" font-family="Helvetica, Arial, sans-serif" font-size="11">
  <defs>
    <marker id="arrow" viewBox="0 0 10 10" refX="9" refY="5" markerWidth="8" markerHeight="8" orient="auto-start-reverse">
      <path d="M0,0 L10,5 L0,10 z" fill="#334155"/>
    </marker>
    <marker id="openArrow" viewBox="0 0 10 10" refX="9" refY="5" markerWidth="10" markerHeight="10" orient="auto-start-reverse">
      <path d="M0,0 L10,5 L0,10" fill="none" stroke="#334155" stroke-width="1.4"/>
    </marker>
    <marker id="diamond" viewBox="0 0 12 10" refX="11" refY="5" markerWidth="12" markerHeight="10" orient="auto-start-reverse">
      <path d="M0,5 L6,0 L12,5 L6,10 z" fill="#ffffff" stroke="#334155" stroke-width="1.2"/>
    </marker>
    <style>
      .cls-title { font-weight: bold; font-size: 12px; fill: #0f172a; }
      .cls-stereo { font-style: italic; fill: #475569; font-size: 10px; }
      .box { fill: #ffffff; stroke: #334155; stroke-width: 1.2; }
      .box-model { fill: #e0f2fe; stroke: #0369a1; }
      .box-dao { fill: #fef9c3; stroke: #a16207; }
      .box-service { fill: #dcfce7; stroke: #15803d; }
      .box-ui { fill: #f3e8ff; stroke: #7e22ce; }
      .box-util { fill: #fce7f3; stroke: #be185d; }
      .sep { stroke: #334155; stroke-width: 0.8; }
      .mem { fill: #1f2937; font-size: 10px; }
      .legend-box { fill: #ffffff; stroke: #94a3b8; stroke-width: 1; }
      .rel { stroke: #334155; stroke-width: 1.2; fill: none; }
      .rel-label { fill: #475569; font-size: 9.5px; }
    </style>
  </defs>

  <!-- title -->
  <text x="700" y="28" text-anchor="middle" font-size="20" font-weight="bold" fill="#0f172a">CinePlex — UML Class Diagram</text>
  <text x="700" y="48" text-anchor="middle" font-size="11" fill="#64748b">Online Movie Ticket Booking System (Java Swing + MySQL)</text>

  <!-- ================= MODEL LAYER ================= -->
  <g>
    <text x="140" y="80" font-weight="bold" fill="#0369a1">MODEL</text>

    <!-- User -->
    <g>
      <rect class="box box-model" x="40" y="90" width="200" height="170" rx="4"/>
      <text class="cls-title" x="140" y="108" text-anchor="middle">User</text>
      <line class="sep" x1="40" y1="118" x2="240" y2="118"/>
      <text class="mem" x="48" y="132">- userId : int</text>
      <text class="mem" x="48" y="146">- fullName : String</text>
      <text class="mem" x="48" y="160">- email : String</text>
      <text class="mem" x="48" y="174">- password : String</text>
      <text class="mem" x="48" y="188">- phone : String</text>
      <text class="mem" x="48" y="202">- role : Role</text>
      <line class="sep" x1="40" y1="212" x2="240" y2="212"/>
      <text class="mem" x="48" y="226">+ getters / setters</text>
      <text class="mem" x="48" y="240">+ isAdmin() : boolean</text>
      <text class="cls-stereo" x="140" y="254" text-anchor="middle">«enum» Role { USER, ADMIN }</text>
    </g>

    <!-- Movie -->
    <g>
      <rect class="box box-model" x="260" y="90" width="200" height="170" rx="4"/>
      <text class="cls-title" x="360" y="108" text-anchor="middle">Movie</text>
      <line class="sep" x1="260" y1="118" x2="460" y2="118"/>
      <text class="mem" x="268" y="132">- movieId : int</text>
      <text class="mem" x="268" y="146">- title : String</text>
      <text class="mem" x="268" y="160">- genre : String</text>
      <text class="mem" x="268" y="174">- language : String</text>
      <text class="mem" x="268" y="188">- durationMin : int</text>
      <text class="mem" x="268" y="202">- rating : String</text>
      <text class="mem" x="268" y="216">- nowShowing : boolean</text>
      <line class="sep" x1="260" y1="226" x2="460" y2="226"/>
      <text class="mem" x="268" y="240">+ getters / setters</text>
    </g>

    <!-- Theatre -->
    <g>
      <rect class="box box-model" x="480" y="90" width="190" height="140" rx="4"/>
      <text class="cls-title" x="575" y="108" text-anchor="middle">Theatre</text>
      <line class="sep" x1="480" y1="118" x2="670" y2="118"/>
      <text class="mem" x="488" y="132">- theatreId : int</text>
      <text class="mem" x="488" y="146">- name : String</text>
      <text class="mem" x="488" y="160">- city : String</text>
      <text class="mem" x="488" y="174">- address : String</text>
      <text class="mem" x="488" y="188">- totalSeats : int</text>
      <line class="sep" x1="480" y1="198" x2="670" y2="198"/>
      <text class="mem" x="488" y="212">+ getters / setters</text>
    </g>

    <!-- Showtime -->
    <g>
      <rect class="box box-model" x="690" y="90" width="200" height="170" rx="4"/>
      <text class="cls-title" x="790" y="108" text-anchor="middle">Showtime</text>
      <line class="sep" x1="690" y1="118" x2="890" y2="118"/>
      <text class="mem" x="698" y="132">- showtimeId : int</text>
      <text class="mem" x="698" y="146">- movieId : int (FK)</text>
      <text class="mem" x="698" y="160">- theatreId : int (FK)</text>
      <text class="mem" x="698" y="174">- showDate : Date</text>
      <text class="mem" x="698" y="188">- showTime : Time</text>
      <text class="mem" x="698" y="202">- price : BigDecimal</text>
      <line class="sep" x1="690" y1="212" x2="890" y2="212"/>
      <text class="mem" x="698" y="226">+ getters / setters</text>
    </g>

    <!-- Booking -->
    <g>
      <rect class="box box-model" x="910" y="90" width="220" height="200" rx="4"/>
      <text class="cls-title" x="1020" y="108" text-anchor="middle">Booking</text>
      <line class="sep" x1="910" y1="118" x2="1130" y2="118"/>
      <text class="mem" x="918" y="132">- bookingId : int</text>
      <text class="mem" x="918" y="146">- userId : int (FK)</text>
      <text class="mem" x="918" y="160">- showtimeId : int (FK)</text>
      <text class="mem" x="918" y="174">- seats : String</text>
      <text class="mem" x="918" y="188">- totalAmount : BigDecimal</text>
      <text class="mem" x="918" y="202">- status : Status</text>
      <text class="mem" x="918" y="216">- bookedAt : Timestamp</text>
      <line class="sep" x1="910" y1="226" x2="1130" y2="226"/>
      <text class="mem" x="918" y="240">+ getters / setters</text>
      <text class="mem" x="918" y="254">+ countSeats() : int</text>
      <text class="cls-stereo" x="1020" y="274" text-anchor="middle">«enum» Status { CONFIRMED, CANCELLED }</text>
    </g>
  </g>

  <!-- ================= DAO LAYER ================= -->
  <g>
    <text x="140" y="315" font-weight="bold" fill="#a16207">DAO  (JDBC, all via PreparedStatement)</text>

    <!-- UserDAO -->
    <g>
      <rect class="box box-dao" x="40" y="325" width="200" height="110" rx="4"/>
      <text class="cls-title" x="140" y="343" text-anchor="middle">UserDAO</text>
      <line class="sep" x1="40" y1="353" x2="240" y2="353"/>
      <text class="mem" x="48" y="367">+ register(User) : boolean</text>
      <text class="mem" x="48" y="381">+ findByEmail(String) : User</text>
      <text class="mem" x="48" y="395">+ findAll() : List&lt;User&gt;</text>
      <text class="mem" x="48" y="409">+ countUsers() : int</text>
    </g>

    <!-- MovieDAO -->
    <g>
      <rect class="box box-dao" x="260" y="325" width="200" height="140" rx="4"/>
      <text class="cls-title" x="360" y="343" text-anchor="middle">MovieDAO</text>
      <line class="sep" x1="260" y1="353" x2="460" y2="353"/>
      <text class="mem" x="268" y="367">+ add(Movie) : boolean</text>
      <text class="mem" x="268" y="381">+ update(Movie) : boolean</text>
      <text class="mem" x="268" y="395">+ delete(int) : boolean</text>
      <text class="mem" x="268" y="409">+ toggleShowing(int,boolean)</text>
      <text class="mem" x="268" y="423">+ findById(int) : Movie</text>
      <text class="mem" x="268" y="437">+ findAll() / findNowShowing()</text>
      <text class="mem" x="268" y="451">+ search(title,genre,lang)</text>
    </g>

    <!-- TheatreDAO -->
    <g>
      <rect class="box box-dao" x="480" y="325" width="190" height="80" rx="4"/>
      <text class="cls-title" x="575" y="343" text-anchor="middle">TheatreDAO</text>
      <line class="sep" x1="480" y1="353" x2="670" y2="353"/>
      <text class="mem" x="488" y="367">+ findAll() : List&lt;Theatre&gt;</text>
      <text class="mem" x="488" y="381">+ findById(int) : Theatre</text>
    </g>

    <!-- ShowtimeDAO -->
    <g>
      <rect class="box box-dao" x="690" y="325" width="200" height="80" rx="4"/>
      <text class="cls-title" x="790" y="343" text-anchor="middle">ShowtimeDAO</text>
      <line class="sep" x1="690" y1="353" x2="890" y2="353"/>
      <text class="mem" x="698" y="367">+ findForMovie(int) : List</text>
      <text class="mem" x="698" y="381">+ findById(int) : Showtime</text>
    </g>

    <!-- BookingDAO -->
    <g>
      <rect class="box box-dao" x="910" y="325" width="220" height="140" rx="4"/>
      <text class="cls-title" x="1020" y="343" text-anchor="middle">BookingDAO</text>
      <line class="sep" x1="910" y1="353" x2="1130" y2="353"/>
      <text class="mem" x="918" y="367">+ create(Booking) : boolean</text>
      <text class="mem" x="918" y="381">+ cancel(int) : boolean</text>
      <text class="mem" x="918" y="395">+ findByUser(int) : List</text>
      <text class="mem" x="918" y="409">+ findAll() : List</text>
      <text class="mem" x="918" y="423">+ seatsTakenFor(int) : Set</text>
      <text class="mem" x="918" y="437">+ countConfirmedBookings()</text>
      <text class="mem" x="918" y="451">+ totalRevenue() : BigDecimal</text>
    </g>

    <!-- DBConnection -->
    <g>
      <rect class="box box-dao" x="1150" y="325" width="210" height="110" rx="4"/>
      <text class="cls-title" x="1255" y="343" text-anchor="middle">DBConnection</text>
      <text class="cls-stereo" x="1255" y="357" text-anchor="middle">«utility»</text>
      <line class="sep" x1="1150" y1="365" x2="1360" y2="365"/>
      <text class="mem" x="1158" y="379">- url,user,password : String</text>
      <line class="sep" x1="1150" y1="389" x2="1360" y2="389"/>
      <text class="mem" x="1158" y="403">+ get() : Connection</text>
      <text class="mem" x="1158" y="417">+ testConnection() : boolean</text>
    </g>
  </g>

  <!-- ================= SERVICE LAYER ================= -->
  <g>
    <text x="140" y="505" font-weight="bold" fill="#15803d">SERVICE</text>

    <g>
      <rect class="box box-service" x="40" y="515" width="260" height="135" rx="4"/>
      <text class="cls-title" x="170" y="533" text-anchor="middle">AuthService</text>
      <line class="sep" x1="40" y1="543" x2="300" y2="543"/>
      <text class="mem" x="48" y="557">- userDAO : UserDAO</text>
      <line class="sep" x1="40" y1="567" x2="300" y2="567"/>
      <text class="mem" x="48" y="581">+ login(email,pwd) : User</text>
      <text class="mem" x="48" y="595">+ register(name,email,pwd,phone)</text>
      <text class="mem" x="48" y="609">+ logout() : void</text>
      <line class="sep" x1="40" y1="619" x2="300" y2="619"/>
      <text class="cls-stereo" x="170" y="634" text-anchor="middle">nested: AuthException</text>
    </g>

    <g>
      <rect class="box box-service" x="320" y="515" width="280" height="160" rx="4"/>
      <text class="cls-title" x="460" y="533" text-anchor="middle">BookingService</text>
      <line class="sep" x1="320" y1="543" x2="600" y2="543"/>
      <text class="mem" x="328" y="557">+ MAX_SEATS_PER_BOOKING = 8</text>
      <text class="mem" x="328" y="571">+ VIP_EXTRA = Rs 100.00</text>
      <text class="mem" x="328" y="585">- bookingDAO : BookingDAO</text>
      <text class="mem" x="328" y="599">- showtimeDAO : ShowtimeDAO</text>
      <line class="sep" x1="320" y1="609" x2="600" y2="609"/>
      <text class="mem" x="328" y="623">+ takenSeats(int) : Set</text>
      <text class="mem" x="328" y="637">+ calculateTotal(base, seats)</text>
      <text class="mem" x="328" y="651">+ book(userId, showId, seats)</text>
      <text class="mem" x="328" y="665">+ cancel(int) / historyFor(int)</text>
    </g>
  </g>

  <!-- ================= UTIL LAYER ================= -->
  <g>
    <text x="820" y="505" font-weight="bold" fill="#be185d">UTIL</text>

    <g>
      <rect class="box box-util" x="680" y="515" width="180" height="85" rx="4"/>
      <text class="cls-title" x="770" y="533" text-anchor="middle">PasswordUtil</text>
      <text class="cls-stereo" x="770" y="547" text-anchor="middle">«utility»</text>
      <line class="sep" x1="680" y1="555" x2="860" y2="555"/>
      <text class="mem" x="688" y="569">+ hash(String) : String</text>
      <text class="mem" x="688" y="583">+ matches(plain,hash) : bool</text>
    </g>

    <g>
      <rect class="box box-util" x="880" y="515" width="160" height="100" rx="4"/>
      <text class="cls-title" x="960" y="533" text-anchor="middle">Session</text>
      <text class="cls-stereo" x="960" y="547" text-anchor="middle">«singleton»</text>
      <line class="sep" x1="880" y1="555" x2="1040" y2="555"/>
      <text class="mem" x="888" y="569">+ set(User) / get()</text>
      <text class="mem" x="888" y="583">+ clear() / isLogged()</text>
      <text class="mem" x="888" y="597">+ isAdmin() : boolean</text>
    </g>

    <g>
      <rect class="box box-util" x="1060" y="515" width="150" height="85" rx="4"/>
      <text class="cls-title" x="1135" y="533" text-anchor="middle">Theme</text>
      <line class="sep" x1="1060" y1="543" x2="1210" y2="543"/>
      <text class="mem" x="1068" y="557">+ BG_DARK, ACCENT, …</text>
      <text class="mem" x="1068" y="571">+ F_HEADER, F_BODY, …</text>
      <text class="mem" x="1068" y="585">(colour &amp; font constants)</text>
    </g>

    <g>
      <rect class="box box-util" x="1230" y="515" width="140" height="85" rx="4"/>
      <text class="cls-title" x="1300" y="533" text-anchor="middle">UI</text>
      <line class="sep" x1="1230" y1="543" x2="1370" y2="543"/>
      <text class="mem" x="1238" y="557">+ primaryButton()</text>
      <text class="mem" x="1238" y="571">+ textField(), card()</text>
      <text class="mem" x="1238" y="585">(Swing factory)</text>
    </g>
  </g>

  <!-- ================= UI LAYER ================= -->
  <g>
    <text x="140" y="720" font-weight="bold" fill="#7e22ce">UI  (Swing JFrames)</text>

    <g>
      <rect class="box box-ui" x="40" y="730" width="150" height="55" rx="4"/>
      <text class="cls-title" x="115" y="748" text-anchor="middle">MainApp</text>
      <line class="sep" x1="40" y1="758" x2="190" y2="758"/>
      <text class="mem" x="48" y="772">+ main(String[])</text>
    </g>

    <g>
      <rect class="box box-ui" x="210" y="730" width="150" height="55" rx="4"/>
      <text class="cls-title" x="285" y="748" text-anchor="middle">LoginFrame</text>
      <line class="sep" x1="210" y1="758" x2="360" y2="758"/>
      <text class="mem" x="218" y="772">- auth : AuthService</text>
    </g>

    <g>
      <rect class="box box-ui" x="380" y="730" width="150" height="55" rx="4"/>
      <text class="cls-title" x="455" y="748" text-anchor="middle">RegisterFrame</text>
      <line class="sep" x1="380" y1="758" x2="530" y2="758"/>
      <text class="mem" x="388" y="772">- auth : AuthService</text>
    </g>

    <g>
      <rect class="box box-ui" x="550" y="730" width="160" height="55" rx="4"/>
      <text class="cls-title" x="630" y="748" text-anchor="middle">HomeFrame</text>
      <line class="sep" x1="550" y1="758" x2="710" y2="758"/>
      <text class="mem" x="558" y="772">- movieDAO : MovieDAO</text>
    </g>

    <g>
      <rect class="box box-ui" x="730" y="730" width="180" height="55" rx="4"/>
      <text class="cls-title" x="820" y="748" text-anchor="middle">MovieDetailFrame</text>
      <line class="sep" x1="730" y1="758" x2="910" y2="758"/>
      <text class="mem" x="738" y="772">- showtimeDAO</text>
    </g>

    <g>
      <rect class="box box-ui" x="930" y="730" width="200" height="55" rx="4"/>
      <text class="cls-title" x="1030" y="748" text-anchor="middle">SeatSelectionFrame</text>
      <line class="sep" x1="930" y1="758" x2="1130" y2="758"/>
      <text class="mem" x="938" y="772">- bookingService</text>
    </g>

    <g>
      <rect class="box box-ui" x="1150" y="730" width="170" height="55" rx="4"/>
      <text class="cls-title" x="1235" y="748" text-anchor="middle">MyBookingsFrame</text>
      <line class="sep" x1="1150" y1="758" x2="1320" y2="758"/>
      <text class="mem" x="1158" y="772">- bookingService</text>
    </g>

    <g>
      <rect class="box box-ui" x="210" y="810" width="200" height="55" rx="4"/>
      <text class="cls-title" x="310" y="828" text-anchor="middle">AdminDashboardFrame</text>
      <line class="sep" x1="210" y1="838" x2="410" y2="838"/>
      <text class="mem" x="218" y="852">movieDAO, userDAO, bookingDAO</text>
    </g>

    <g>
      <rect class="box box-ui" x="430" y="810" width="130" height="55" rx="4"/>
      <text class="cls-title" x="495" y="828" text-anchor="middle">NavBar</text>
      <line class="sep" x1="430" y1="838" x2="560" y2="838"/>
      <text class="mem" x="438" y="852">(JPanel)</text>
    </g>
  </g>

  <!-- ================= RELATIONSHIPS ================= -->
  <!-- Model FK lines (dashed) -->
  <path class="rel" stroke-dasharray="4,3" d="M460,175 L690,175" marker-end="url(#openArrow)"/>
  <text class="rel-label" x="530" y="170">movie_id</text>

  <path class="rel" stroke-dasharray="4,3" d="M670,175 L690,185" marker-end="url(#openArrow)"/>
  <text class="rel-label" x="665" y="192">theatre_id</text>

  <path class="rel" stroke-dasharray="4,3" d="M890,175 L910,175" marker-end="url(#openArrow)"/>
  <text class="rel-label" x="890" y="170">showtime_id</text>

  <path class="rel" stroke-dasharray="4,3" d="M240,175 Q575,290 910,200" marker-end="url(#openArrow)"/>
  <text class="rel-label" x="530" y="265">user_id</text>

  <!-- DAO -> Model: dashed uses -->
  <path class="rel" stroke-dasharray="4,3" d="M140,325 L140,260" marker-end="url(#openArrow)"/>
  <path class="rel" stroke-dasharray="4,3" d="M360,325 L360,260" marker-end="url(#openArrow)"/>
  <path class="rel" stroke-dasharray="4,3" d="M575,325 L575,230" marker-end="url(#openArrow)"/>
  <path class="rel" stroke-dasharray="4,3" d="M790,325 L790,260" marker-end="url(#openArrow)"/>
  <path class="rel" stroke-dasharray="4,3" d="M1020,325 L1020,290" marker-end="url(#openArrow)"/>

  <!-- DAO -> DBConnection -->
  <path class="rel" d="M1130,380 L1150,380"/>
  <path class="rel" d="M890,380 Q1020,395 1150,390"/>
  <path class="rel" d="M670,380 Q900,405 1150,395"/>
  <path class="rel" d="M460,395 Q800,415 1150,400"/>
  <path class="rel" d="M240,395 Q690,430 1150,405" marker-end="url(#openArrow)"/>
  <text class="rel-label" x="1030" y="425">«uses» DBConnection.get()</text>

  <!-- Service -> DAO (composition) -->
  <path class="rel" d="M170,515 L140,435" marker-start="url(#diamond)"/>
  <path class="rel" d="M460,515 L1020,465" marker-start="url(#diamond)"/>
  <path class="rel" d="M500,515 L790,405" marker-start="url(#diamond)"/>

  <!-- Service -> Util -->
  <path class="rel" stroke-dasharray="4,3" d="M300,560 L680,560" marker-end="url(#openArrow)"/>
  <text class="rel-label" x="440" y="555">uses PasswordUtil</text>

  <path class="rel" stroke-dasharray="4,3" d="M300,580 L880,580" marker-end="url(#openArrow)"/>
  <text class="rel-label" x="440" y="595">uses Session</text>

  <!-- UI -> Service (composition) -->
  <path class="rel" d="M285,730 L170,650" marker-start="url(#diamond)"/>
  <path class="rel" d="M455,730 L170,650" marker-start="url(#diamond)"/>
  <path class="rel" d="M1030,730 L460,675" marker-start="url(#diamond)"/>
  <path class="rel" d="M1235,730 L460,675" marker-start="url(#diamond)"/>

  <!-- UI -> DAO -->
  <path class="rel" d="M630,730 L360,465" marker-start="url(#diamond)"/>
  <path class="rel" d="M820,730 L790,405" marker-start="url(#diamond)"/>
  <path class="rel" d="M310,810 L360,465" marker-start="url(#diamond)"/>
  <path class="rel" d="M310,810 L140,435" marker-start="url(#diamond)"/>
  <path class="rel" d="M310,810 L1020,465" marker-start="url(#diamond)"/>

  <!-- MainApp -> LoginFrame -->
  <path class="rel" d="M190,758 L210,758" marker-end="url(#arrow)"/>
  <text class="rel-label" x="190" y="753">creates</text>

  <!-- Navigation flow among frames -->
  <path class="rel" stroke-dasharray="2,2" d="M360,758 L380,758" marker-end="url(#arrow)"/>
  <path class="rel" stroke-dasharray="2,2" d="M530,758 L550,758" marker-end="url(#arrow)"/>
  <path class="rel" stroke-dasharray="2,2" d="M710,758 L730,758" marker-end="url(#arrow)"/>
  <path class="rel" stroke-dasharray="2,2" d="M910,758 L930,758" marker-end="url(#arrow)"/>
  <path class="rel" stroke-dasharray="2,2" d="M1130,758 L1150,758" marker-end="url(#arrow)"/>

  <!-- ================= LEGEND ================= -->
  <g transform="translate(40, 910)">
    <rect class="legend-box" x="0" y="0" width="1320" height="160" rx="4"/>
    <text x="10" y="20" font-weight="bold" fill="#0f172a">Legend</text>

    <rect class="box-model" x="10" y="32" width="22" height="14"/>
    <text x="40" y="44" fill="#0f172a">Model / POJO</text>

    <rect class="box-dao" x="160" y="32" width="22" height="14"/>
    <text x="190" y="44" fill="#0f172a">DAO (JDBC)</text>

    <rect class="box-service" x="310" y="32" width="22" height="14"/>
    <text x="340" y="44" fill="#0f172a">Service (business logic)</text>

    <rect class="box-ui" x="520" y="32" width="22" height="14"/>
    <text x="550" y="44" fill="#0f172a">UI (Swing)</text>

    <rect class="box-util" x="650" y="32" width="22" height="14"/>
    <text x="680" y="44" fill="#0f172a">Utility / singleton</text>

    <line x1="10" y1="70" x2="60" y2="70" class="rel" marker-start="url(#diamond)"/>
    <text x="70" y="74" fill="#0f172a">Composition (has-a)</text>

    <line x1="260" y1="70" x2="310" y2="70" class="rel" stroke-dasharray="4,3" marker-end="url(#openArrow)"/>
    <text x="320" y="74" fill="#0f172a">Dependency (uses)</text>

    <line x1="510" y1="70" x2="560" y2="70" class="rel" marker-end="url(#arrow)"/>
    <text x="570" y="74" fill="#0f172a">Creates / navigates to</text>

    <text x="10" y="100" fill="#334155" font-weight="bold">Architecture layers (top-down):</text>
    <text x="10" y="118" fill="#475569">UI — Service — DAO — Database.  Each layer depends only on the one directly below.</text>
    <text x="10" y="134" fill="#475569">All DAOs use JDBC via DBConnection, exclusively through PreparedStatement (parameterised queries).</text>
    <text x="10" y="150" fill="#475569">Session holds the currently-logged-in User for the duration of the application.</text>
  </g>
</svg>
